<?xml version="1.0" encoding="utf-8"?>
<!-- Generator: Adobe Illustrator 25.4.1, SVG Export Plug-In . SVG Version: 6.00 Build 0)  -->
<svg version="1.1" id="Layer_1" xmlns="http://www.w3.org/2000/svg" xmlns:xlink="http://www.w3.org/1999/xlink" x="0px" y="0px"
	 viewBox="0 0 150.1 32" style="enable-background:new 0 0 150.1 32;" xml:space="preserve">
<style type="text/css">
	.st0{fill:#4F46E5;}
</style>
<g id="NHS_x5F_Camden_x5F_and_x5F_Challenge">
	<path class="st0" d="M21.3,5c1.6-1.6,3.2-3.3,4.9-5c0,2.2,0,4.4,0,6.6c-1.6,1.7-3.2,3.3-4.9,5c-1.1-1.3-2.5-2.3-4.1-2.7
		c-2.4-0.7-5.1-0.1-7,1.5c-0.9,0.8-1.7,1.8-2.3,2.9c0,0.1-0.1,0-0.1-0.1C7.1,11.6,7,9.7,7.4,8c0.8-2.9,3.2-5.3,6.2-5.9
		C16.4,1.5,19.5,2.7,21.3,5z"/>
	<path class="st0" d="M0,12.2c0.6,3.7,2.5,7.2,5.4,9.5c2.4,2,5.5,3.3,8.7,3.5c4.5,0.3,9.1-1.6,12.1-4.9c0,2.2,0,4.4,0,6.6
		c-2.8,3.1-6.8,5-11,5C10.9,32,6.6,30,3.8,26.8C2,24.6,0.6,22,0.2,19.2C-0.1,16.9,0.1,14.6,0,12.2z"/>
</g>
<g>
	<path class="st0" d="M32.8,11.8c0.7-1.3,1.8-2.4,3.1-3.1c1.3-0.7,2.8-1.1,4.5-1.1c2,0,3.8,0.5,5.2,1.6c1.5,1.1,2.4,2.5,2.9,4.4
		h-4.6c-0.3-0.7-0.8-1.3-1.5-1.6c-0.6-0.4-1.3-0.6-2.1-0.6c-1.3,0-2.3,0.4-3.1,1.3c-0.8,0.9-1.2,2.1-1.2,3.6c0,1.5,0.4,2.7,1.2,3.6
		c0.8,0.9,1.8,1.3,3.1,1.3c0.8,0,1.5-0.2,2.1-0.6c0.6-0.4,1.1-0.9,1.5-1.6h4.6c-0.5,1.9-1.5,3.3-2.9,4.4c-1.5,1.1-3.2,1.6-5.2,1.6
		c-1.7,0-3.2-0.4-4.5-1.1c-1.3-0.7-2.3-1.8-3.1-3.1c-0.7-1.3-1.1-2.8-1.1-4.5S32.1,13.1,32.8,11.8z"/>
	<path class="st0" d="M53.7,24.2c-1.1-0.6-1.9-1.4-2.5-2.4c-0.6-1.1-0.9-2.3-0.9-3.7c0-1.4,0.3-2.6,0.9-3.7s1.5-1.9,2.5-2.5
		c1.1-0.6,2.3-0.9,3.6-0.9c1.3,0,2.5,0.3,3.6,0.9c1.1,0.6,1.9,1.4,2.5,2.5c0.6,1.1,0.9,2.3,0.9,3.7c0,1.4-0.3,2.6-0.9,3.7
		c-0.6,1.1-1.5,1.9-2.6,2.5c-1.1,0.6-2.3,0.9-3.6,0.9C56,25.1,54.8,24.8,53.7,24.2z M59.4,20.6c0.6-0.6,0.8-1.4,0.8-2.5
		c0-1.1-0.3-1.9-0.8-2.5c-0.5-0.6-1.2-0.9-2-0.9c-0.8,0-1.5,0.3-2,0.9c-0.5,0.6-0.8,1.4-0.8,2.5c0,1.1,0.3,1.9,0.8,2.5
		c0.5,0.6,1.2,0.9,2,0.9C58.1,21.5,58.8,21.2,59.4,20.6z"/>
	<path class="st0" d="M70.9,6.8v18.1h-4.2V6.8H70.9z"/>
	<path class="st0" d="M78.1,6.8v18.1h-4.2V6.8H78.1z"/>
	<path class="st0" d="M83.7,24.2c-1.1-0.6-1.9-1.4-2.5-2.4c-0.6-1.1-0.9-2.3-0.9-3.7c0-1.4,0.3-2.6,0.9-3.7c0.6-1.1,1.5-1.9,2.5-2.5
		c1.1-0.6,2.3-0.9,3.6-0.9c1.3,0,2.5,0.3,3.6,0.9c1.1,0.6,1.9,1.4,2.5,2.5s0.9,2.3,0.9,3.7c0,1.4-0.3,2.6-0.9,3.7
		c-0.6,1.1-1.5,1.9-2.6,2.5c-1.1,0.6-2.3,0.9-3.6,0.9C86,25.1,84.8,24.8,83.7,24.2z M89.4,20.6c0.6-0.6,0.8-1.4,0.8-2.5
		c0-1.1-0.3-1.9-0.8-2.5c-0.5-0.6-1.2-0.9-2-0.9c-0.8,0-1.5,0.3-2,0.9c-0.5,0.6-0.8,1.4-0.8,2.5c0,1.1,0.3,1.9,0.8,2.5
		c0.5,0.6,1.2,0.9,2,0.9C88.2,21.5,88.8,21.2,89.4,20.6z"/>
	<path class="st0" d="M96.8,14.4c0.6-1.1,1.4-1.9,2.4-2.4c1-0.6,2.2-0.9,3.6-0.9c1.7,0,3.1,0.4,4.3,1.3c1.2,0.9,1.9,2.2,2.3,3.8
		h-4.5c-0.4-1-1.1-1.6-2.2-1.6c-0.8,0-1.4,0.3-1.8,0.9s-0.7,1.4-0.7,2.6c0,1.1,0.2,2,0.7,2.6c0.5,0.6,1.1,0.9,1.8,0.9
		c1.1,0,1.8-0.5,2.2-1.6h4.5c-0.4,1.6-1.1,2.9-2.3,3.8c-1.2,0.9-2.6,1.4-4.3,1.4c-1.3,0-2.5-0.3-3.6-0.9c-1-0.6-1.8-1.4-2.4-2.4
		c-0.6-1.1-0.9-2.3-0.9-3.7C95.9,16.7,96.2,15.4,96.8,14.4z"/>
	<path class="st0" d="M114.1,24.2c-1.1-0.6-1.9-1.4-2.5-2.4c-0.6-1.1-0.9-2.3-0.9-3.7c0-1.4,0.3-2.6,0.9-3.7
		c0.6-1.1,1.5-1.9,2.5-2.5c1.1-0.6,2.3-0.9,3.6-0.9c1.3,0,2.5,0.3,3.6,0.9c1.1,0.6,1.9,1.4,2.5,2.5c0.6,1.1,0.9,2.3,0.9,3.7
		c0,1.4-0.3,2.6-0.9,3.7c-0.6,1.1-1.5,1.9-2.6,2.5c-1.1,0.6-2.3,0.9-3.6,0.9S115.2,24.8,114.1,24.2z M119.8,20.6
		c0.6-0.6,0.8-1.4,0.8-2.5c0-1.1-0.3-1.9-0.8-2.5c-0.5-0.6-1.2-0.9-2-0.9c-0.8,0-1.5,0.3-2,0.9c-0.5,0.6-0.8,1.4-0.8,2.5
		c0,1.1,0.3,1.9,0.8,2.5c0.5,0.6,1.2,0.9,2,0.9S119.2,21.2,119.8,20.6z"/>
	<path class="st0" d="M148.6,12.6c1,1,1.5,2.5,1.5,4.3v8h-4.2v-7.4c0-0.9-0.2-1.6-0.7-2c-0.5-0.5-1.1-0.7-1.9-0.7
		c-0.8,0-1.5,0.2-1.9,0.7c-0.5,0.5-0.7,1.2-0.7,2v7.4h-4.2v-7.4c0-0.9-0.2-1.6-0.7-2c-0.5-0.5-1.1-0.7-1.9-0.7
		c-0.8,0-1.5,0.2-1.9,0.7c-0.5,0.5-0.7,1.2-0.7,2v7.4h-4.2V11.3h4.2V13c0.4-0.6,1-1,1.7-1.4c0.7-0.3,1.5-0.5,2.3-0.5
		c1,0,1.9,0.2,2.8,0.7c0.8,0.4,1.4,1.1,1.9,1.9c0.5-0.7,1.1-1.4,1.9-1.8c0.8-0.5,1.7-0.7,2.7-0.7C146.2,11.1,147.6,11.6,148.6,12.6z
		"/>
</g>
</svg>
