<?xml version="1.0" encoding="utf-8"?>
<!-- Generator: Adobe Illustrator 25.4.1, SVG Export Plug-In . SVG Version: 6.00 Build 0)  -->
<svg version="1.1" id="Layer_1" xmlns="http://www.w3.org/2000/svg" xmlns:xlink="http://www.w3.org/1999/xlink" x="0px" y="0px"
	 viewBox="0 0 26.3 32" style="enable-background:new 0 0 26.3 32;" xml:space="preserve">
<style type="text/css">
	.st0{fill:#4F46E5;}
</style>
<g id="NHS_x5F_Camden_x5F_and_x5F_Challenge">
	<path class="st0" d="M21.3,5c1.6-1.6,3.2-3.3,4.9-5c0,2.2,0,4.4,0,6.6c-1.6,1.7-3.2,3.3-4.9,5c-1.1-1.3-2.5-2.3-4.1-2.7
		c-2.4-0.7-5.1-0.1-7,1.5c-0.9,0.8-1.7,1.8-2.3,2.9c0,0.1-0.1,0-0.1-0.1C7.1,11.6,7,9.7,7.4,8c0.8-2.9,3.2-5.3,6.2-5.9
		C16.4,1.5,19.5,2.7,21.3,5z"/>
	<path class="st0" d="M0,12.2c0.6,3.7,2.5,7.2,5.4,9.5c2.4,2,5.5,3.3,8.7,3.5c4.5,0.3,9.1-1.6,12.1-4.9c0,2.2,0,4.4,0,6.6
		c-2.8,3.1-6.8,5-11,5C10.9,32,6.6,30,3.8,26.8C2,24.6,0.6,22,0.2,19.2C-0.1,16.9,0.1,14.6,0,12.2z"/>
</g>
</svg>
